<svg width="264" height="200" viewBox="0 0 264 200" fill="none" xmlns="http://www.w3.org/2000/svg">
<g clip-path="url(#clip0_1271_404)">
<path d="M207.819 125.954V102.638H215.591C215.591 102.638 215.591 112.682 215.591 113.502C215.591 114.065 215.54 114.629 215.439 115.193H215.743L224.176 102.638H231.592V125.954H223.871V114.988C223.871 114.475 223.922 113.963 224.023 113.45H223.668L215.185 125.954H207.819Z" fill="#4A2015"/>
<path d="M191.717 119.292C194.511 119.292 196.39 117.089 196.39 114.322C196.39 111.554 194.511 109.249 191.717 109.249C188.923 109.249 187.044 111.452 187.044 114.322C187.044 117.191 188.974 119.292 191.717 119.292ZM191.717 102.023C199.082 102.023 204.619 107.301 204.619 114.322C204.619 121.342 199.133 126.568 191.717 126.568C184.301 126.568 178.916 121.29 178.916 114.322C178.916 107.353 184.453 102.023 191.717 102.023Z" fill="#4A2015"/>
<path d="M37.9563 150.294C42.6296 150.294 45.7789 146.86 45.7789 142.351C45.7789 137.739 42.5788 134.255 37.9563 134.255C33.3846 134.255 30.1845 137.739 30.1845 142.351C30.2353 146.86 33.3846 150.294 37.9563 150.294ZM37.9563 130.002C45.2202 130.002 50.3506 135.28 50.3506 142.351C50.3506 149.371 45.2202 154.547 37.9563 154.547C30.794 154.547 25.6128 149.32 25.6128 142.351C25.6636 135.228 30.794 130.002 37.9563 130.002Z" fill="#4A2015"/>
<path d="M142.292 133.845C146.457 133.845 148.642 136.561 148.997 140.148H135.638C136.298 136.458 138.838 133.845 142.292 133.845ZM153.213 143.786C153.264 143.325 153.264 142.812 153.264 142.351C153.264 135.28 149.607 130.002 142.038 130.002C135.536 130.002 130.812 135.28 130.812 142.351C130.812 142.863 130.863 143.325 130.863 143.786C131.371 149.884 135.231 154.547 143.308 154.547C147.219 154.547 150.521 153.317 152.908 151.37L151.08 148.039C148.845 149.679 146.203 150.601 143.409 150.601C138.381 150.601 135.942 147.834 135.485 143.786H153.213Z" fill="#4A2015"/>
<path d="M173.43 130.617V140.148H161.087V130.617H156.464V153.932H161.087V143.786H173.43V153.932H178.053V130.617H173.43Z" fill="#4A2015"/>
<path d="M202.282 130.617H181.253V134.767H189.482V153.932H194.053V134.767H202.282V130.617Z" fill="#4A2015"/>
<path d="M231.643 130.617H227.02V153.932H231.643V130.617Z" fill="#4A2015"/>
<path d="M63.6085 141.685V141.48C63.9132 141.377 64.218 141.173 64.4212 140.916C64.8276 140.455 73.2598 130.668 73.2598 130.668H68.0785L59.9511 140.25H58.1225V130.668H53.5V153.983H58.1225V143.837H60.2051L68.9421 153.983H74.6821L64.4212 142.3C64.2688 141.992 63.964 141.787 63.6085 141.685Z" fill="#4A2015"/>
<path d="M212.797 150.447C211.375 150.447 210.054 150.345 210.054 150.345V141.89C210.969 141.685 211.883 141.582 212.848 141.634C216.709 141.634 218.385 143.12 218.385 145.938C218.385 148.756 216.912 150.396 212.797 150.447ZM213.661 137.739C212.493 137.739 211.273 137.842 210.105 137.995V130.617H205.483V153.932C205.483 153.932 209.292 154.29 213.153 154.29C220.366 154.29 222.753 149.832 222.753 145.733C222.753 141.634 220.671 137.739 213.661 137.739Z" fill="#4A2015"/>
<path d="M11.4914 150.294C6.86897 150.294 4.37995 146.86 4.48154 142.351C4.58313 137.739 7.17375 134.255 11.847 134.255C14.3868 134.255 17.841 136.612 17.841 140.916V147.373C16.2663 149.269 13.9297 150.345 11.4914 150.294ZM18.0442 130.617L17.9426 133.537H17.6378C16.0631 131.385 13.6249 130.053 10.9327 129.95C4.17676 129.95 0.163853 135.228 0.0114643 142.3C-0.140925 149.32 3.92278 154.495 10.6787 154.495C13.7773 154.495 15.7075 153.624 17.587 151.37H17.8918V153.471C17.8918 157.98 14.7932 159.773 11.2883 159.773C8.69764 159.722 6.20862 159.005 4.02437 157.621L2.50048 161.464C5.14189 163.053 8.18967 163.924 11.2883 163.924C17.7394 163.924 22.5142 160.03 22.5142 152.548V130.617H18.0442Z" fill="#4A2015"/>
<path d="M92.9687 130.617V147.526C91.4956 149.32 89.2605 150.345 86.9239 150.294C82.7078 150.294 80.7776 146.86 80.8791 142.351V130.617H76.4091V142.351C76.2567 149.371 78.9997 154.547 85.7556 154.547C88.8542 154.547 90.9368 153.624 92.6639 151.421H92.9687V153.522C92.9687 158.031 89.8701 159.825 86.3652 159.825C83.7745 159.773 81.2855 159.056 79.1013 157.672L77.5774 161.516C80.2188 163.104 83.2666 163.924 86.3652 163.924C92.8163 163.924 97.5911 160.03 97.5911 152.548V130.617H92.9687Z" fill="#4A2015"/>
<path d="M123.294 130.616C123.294 130.616 115.675 141.429 115.472 141.736C115.319 141.941 115.218 142.146 115.167 142.351H115.014C114.913 142.146 114.811 141.89 114.659 141.736L106.227 130.616H101.858V153.932H106.481V139.071C106.481 138.508 106.43 137.995 106.277 137.432H106.481L114.964 148.91H115.116L122.989 137.432H123.193C123.04 137.944 122.989 138.508 122.989 139.02V153.88H127.612V130.565H123.294V130.616Z" fill="#4A2015"/>
<path d="M169.62 102.638C169.62 102.638 163.118 111.145 162.915 111.452C162.763 111.606 162.61 111.811 162.56 112.067H162.204C162.103 111.862 162.001 111.657 161.849 111.452C161.391 110.888 154.686 102.638 154.686 102.638H148.591V125.954H156.058V116.166C156.058 115.603 156.007 115.039 155.905 114.475H156.261L162.255 121.444H162.56L168.147 114.475H168.503C168.401 115.039 168.3 115.603 168.35 116.166V125.954H175.818V102.638H169.62Z" fill="#4A2015"/>
<path d="M217.775 56.3152V32.6413H199.286V56.3152C199.286 64.6677 203.705 72.3541 210.867 76.5047L231.694 88.5979V67.0249L220.112 60.3121C218.639 59.5435 217.775 58.0062 217.775 56.3152Z" fill="#C79B65"/>
<path d="M231.643 79.323L252.469 67.2299C259.631 63.0792 264 55.3417 264 47.0404V0H231.643V18.6522H245.51V46.9892C245.51 48.6802 244.647 50.2174 243.224 51.0373L231.643 57.75V79.323Z" fill="#E44E34"/>
<path d="M231.643 0L199.235 32.6413H231.643V0Z" fill="#4A2015"/>
<path d="M59.6463 190.263L59.7479 188.725H59.6971L58.986 190.416L55.6842 195.95H54.7699V186.061H56.1922V191.902L56.0398 193.388H56.1414L56.8018 191.749L60.1035 186.061H61.0686V195.95H59.6463V190.263Z" fill="#E44E34"/>
<path d="M74.7837 190.058L74.9361 188.213H74.8345L74.2757 189.853L72.447 193.645H71.9391L70.0088 189.853L69.5009 188.213H69.3993L69.5516 190.058V195.95H68.2817V186.061H69.704L71.8375 190.314L72.2439 191.646H72.2947L72.7518 190.314L74.7329 186.061H76.206V195.95H74.7837V190.058Z" fill="#E44E34"/>
<path d="M81.3364 192.415L81.7427 194.311H81.8443L82.1491 192.415L83.6222 186.061H85.0445L82.7079 194.926C82.5047 195.643 82.3523 196.309 82.1491 196.924C81.9967 197.488 81.7935 198 81.5395 198.513C81.3871 198.923 81.1332 199.281 80.8284 199.589C80.5744 199.845 80.2188 199.999 79.8633 199.999C79.5585 199.999 79.2029 199.947 78.8981 199.794L79.1521 198.461C79.5585 198.615 79.9648 198.513 80.2188 198.154C80.422 197.898 80.5744 197.641 80.676 197.334C80.8284 196.873 80.9808 196.412 81.0316 195.899L77.8822 186.009H79.5077L81.3364 192.415Z" fill="#E44E34"/>
<path d="M91.4448 191.544H88.0414V195.95H86.6699V186.061H88.0414V190.263H91.4448V186.061H92.8671V195.95H91.4448V191.544Z" fill="#E44E34"/>
<path d="M100.385 190.263L100.537 188.725H100.436L99.7754 190.416L96.4737 195.95H95.5085V186.061H96.9308V191.902L96.8293 193.388H96.88L97.5404 191.749L100.893 186.061H101.807V195.95H100.385V190.263Z" fill="#E44E34"/>
<path d="M111.713 198.41H110.697L110.493 195.95H104.5V186.061H105.922V194.669H109.173V186.061H110.544V194.669H111.713V198.41Z" fill="#E44E34"/>
<path d="M118.418 190.263L118.57 188.725H118.469L117.808 190.416L114.456 195.95H113.541V186.061H114.964V191.902L114.862 193.388H114.913L115.573 191.749L118.926 186.061H119.84V195.95H118.418V190.263Z" fill="#E44E34"/>
<path d="M127.256 187.342H123.955V195.95H122.532V186.061H128.628V195.95H127.256V187.342Z" fill="#E44E34"/>
<path d="M135.485 191.441L135.079 191.39H134.673C134.368 191.39 134.063 191.441 133.758 191.492C133.504 191.544 133.2 191.646 132.946 191.749C132.742 191.851 132.539 192.056 132.387 192.261C132.234 192.517 132.184 192.825 132.184 193.132C132.133 193.593 132.285 194.003 132.539 194.362C132.793 194.669 133.149 194.823 133.504 194.823C133.961 194.874 134.419 194.721 134.774 194.413C135.028 194.157 135.282 193.901 135.384 193.542V191.441H135.485ZM131.269 186.624C131.676 186.368 132.184 186.163 132.641 186.061C133.2 185.907 133.758 185.856 134.368 185.856C134.825 185.856 135.282 185.907 135.689 186.112C135.993 186.266 136.298 186.471 136.45 186.778C136.654 187.086 136.755 187.393 136.806 187.752C136.857 188.11 136.908 188.52 136.908 188.879C136.908 189.648 136.908 190.416 136.857 191.185C136.806 191.954 136.806 192.671 136.806 193.337C136.806 193.85 136.806 194.311 136.857 194.721C136.908 195.131 136.958 195.541 137.06 195.95H135.943L135.587 194.772H135.536C135.333 195.131 135.028 195.438 134.673 195.643C134.215 195.899 133.707 196.053 133.149 196.002C132.488 196.002 131.879 195.745 131.422 195.233C130.964 194.669 130.71 193.952 130.761 193.183C130.761 192.671 130.863 192.21 131.015 191.749C131.218 191.39 131.472 191.031 131.828 190.826C132.184 190.57 132.59 190.416 133.047 190.314C133.555 190.211 134.114 190.16 134.622 190.16H135.028C135.181 190.16 135.282 190.16 135.435 190.16C135.485 189.75 135.485 189.391 135.485 189.084C135.536 188.52 135.435 188.008 135.181 187.495C134.876 187.137 134.419 186.983 133.961 187.034C133.555 187.034 133.149 187.086 132.793 187.188C132.438 187.291 132.082 187.444 131.726 187.598L131.269 186.624Z" fill="#E44E34"/>
<path d="M143.816 187.342H141.682C141.632 188.469 141.581 189.545 141.53 190.57C141.479 191.492 141.378 192.415 141.174 193.337C141.073 194.003 140.819 194.669 140.463 195.284C140.209 195.746 139.752 196.002 139.244 196.002C139.041 196.002 138.889 196.002 138.685 195.95C138.533 195.95 138.381 195.899 138.228 195.797L138.431 194.567C138.685 194.669 138.939 194.618 139.193 194.516C139.498 194.26 139.701 193.901 139.752 193.491C139.955 192.62 140.057 191.749 140.159 190.878C140.26 189.699 140.311 188.059 140.362 186.061H145.187V195.95H143.765V187.342H143.816Z" fill="#E44E34"/>
<path d="M149.353 194.669C149.708 194.721 150.064 194.772 150.419 194.772C151.639 194.772 152.248 194.106 152.248 192.825C152.299 192.312 152.146 191.851 151.791 191.441C151.435 191.082 150.927 190.878 150.419 190.929C150.216 190.929 150.064 190.929 149.861 190.98C149.657 190.98 149.454 191.031 149.302 191.082L149.353 194.669ZM149.353 189.853C149.607 189.801 149.861 189.75 150.115 189.75C150.369 189.75 150.572 189.699 150.775 189.699C151.232 189.699 151.74 189.75 152.147 189.904C152.502 190.058 152.807 190.263 153.061 190.519C153.315 190.775 153.467 191.134 153.569 191.441C153.67 191.8 153.721 192.21 153.721 192.62C153.721 193.798 153.416 194.669 152.858 195.233C152.299 195.797 151.385 196.053 150.165 196.053C149.404 196.053 148.692 196.002 147.93 195.95V186.061H149.353V189.853Z" fill="#E44E34"/>
<path d="M160.477 191.544H157.124V195.95H155.702V186.061H157.124V190.263H160.477V186.061H161.899V195.95H160.477V191.544Z" fill="#E44E34"/>
<path d="M171.398 186.061H172.821V195.951H171.398V186.061ZM165.963 194.669C166.319 194.721 166.674 194.772 167.03 194.772C167.538 194.823 167.995 194.618 168.35 194.26C168.604 193.85 168.757 193.337 168.706 192.825C168.757 192.312 168.604 191.851 168.35 191.441C168.046 191.082 167.538 190.878 167.081 190.929C166.877 190.929 166.725 190.929 166.522 190.98C166.319 190.98 166.115 191.031 165.963 191.082V194.669ZM165.963 189.853C166.217 189.801 166.471 189.75 166.725 189.75C166.979 189.75 167.182 189.699 167.385 189.699C167.843 189.699 168.3 189.75 168.757 189.904C169.112 190.058 169.366 190.263 169.62 190.519C169.824 190.775 169.976 191.134 170.078 191.441C170.179 191.8 170.23 192.21 170.23 192.62C170.23 193.798 169.976 194.669 169.417 195.233C168.909 195.797 167.995 196.053 166.776 196.053C166.014 196.053 165.303 196.002 164.541 195.951V186.061H165.963V189.853Z" fill="#E44E34"/>
<path d="M180.237 189.955C180.288 189.187 180.186 188.469 179.831 187.803C179.577 187.342 179.119 187.086 178.611 187.086C178.053 187.086 177.494 187.342 177.189 187.803C176.783 188.469 176.58 189.187 176.58 189.955H180.237ZM181.354 195.233C180.999 195.541 180.592 195.746 180.135 195.899C179.627 196.053 179.119 196.155 178.611 196.155C178.053 196.155 177.494 196.053 177.037 195.797C176.58 195.541 176.224 195.182 175.919 194.772C175.614 194.26 175.411 193.696 175.259 193.132C175.106 192.415 175.056 191.697 175.056 190.98C175.056 189.289 175.36 188.008 175.97 187.137C176.529 186.266 177.545 185.753 178.561 185.805C178.916 185.805 179.272 185.856 179.627 185.907C179.983 186.009 180.338 186.214 180.592 186.471C180.897 186.778 181.151 187.188 181.304 187.649C181.507 188.264 181.608 188.93 181.558 189.596C181.558 189.801 181.558 190.058 181.507 190.314C181.456 190.57 181.456 190.826 181.456 191.134H176.478C176.478 191.646 176.529 192.159 176.63 192.671C176.681 193.081 176.834 193.491 177.088 193.85C177.291 194.157 177.545 194.413 177.849 194.618C178.205 194.823 178.611 194.874 178.967 194.874C179.323 194.874 179.678 194.823 180.034 194.669C180.338 194.567 180.592 194.413 180.846 194.208L181.354 195.233Z" fill="#E44E34"/>
<path d="M190.853 192.415L191.26 194.311H191.361L191.666 192.415L193.139 186.061H194.561L192.225 194.926C192.022 195.643 191.869 196.309 191.666 196.924C191.514 197.488 191.31 198 191.056 198.513C190.904 198.923 190.65 199.281 190.345 199.589C190.091 199.845 189.736 199.999 189.38 199.999C189.075 199.999 188.72 199.947 188.415 199.794L188.669 198.461C189.075 198.615 189.482 198.513 189.736 198.154C189.939 197.898 190.091 197.641 190.193 197.334C190.345 196.873 190.498 196.412 190.548 195.899L187.399 186.009H189.025L190.853 192.415Z" fill="#E44E34"/>
<path d="M201.47 195.438C201.114 195.694 200.758 195.899 200.352 196.002C199.946 196.104 199.489 196.207 199.031 196.207C198.473 196.207 197.914 196.104 197.457 195.848C197 195.592 196.644 195.233 196.39 194.823C196.085 194.311 195.882 193.747 195.831 193.183C195.679 192.466 195.628 191.749 195.628 191.082C195.628 189.391 195.933 188.11 196.542 187.239C197.101 186.368 198.066 185.856 199.082 185.907C199.539 185.907 199.946 185.958 200.403 186.061C200.708 186.163 201.063 186.266 201.368 186.419L200.962 187.649C200.454 187.342 199.844 187.188 199.235 187.188C198.574 187.188 197.965 187.547 197.66 188.11C197.254 189.033 197.05 190.058 197.101 191.082C197.101 191.595 197.152 192.107 197.203 192.62C197.254 193.03 197.406 193.491 197.609 193.85C197.761 194.157 198.015 194.464 198.32 194.669C198.625 194.874 199.031 194.977 199.387 194.977C199.997 194.977 200.555 194.772 201.063 194.362L201.47 195.438Z" fill="#E44E34"/>
<path d="M207.26 187.342H205.127C205.076 188.469 205.025 189.545 204.975 190.57C204.924 191.492 204.822 192.415 204.619 193.337C204.517 194.003 204.263 194.669 203.908 195.284C203.654 195.746 203.197 196.002 202.689 196.002C202.486 196.002 202.333 196.002 202.13 195.95C201.978 195.95 201.825 195.899 201.673 195.797L201.876 194.567C202.13 194.669 202.384 194.618 202.638 194.516C202.943 194.26 203.146 193.901 203.197 193.491C203.4 192.62 203.502 191.749 203.603 190.878C203.705 189.699 203.756 188.059 203.806 186.061H208.632V195.95H207.26V187.342Z" fill="#E44E34"/>
<path d="M213.814 192.415L214.22 194.311H214.321L214.626 192.415L216.099 186.061H217.522L215.185 194.926C214.982 195.643 214.829 196.309 214.626 196.924C214.474 197.488 214.271 198 214.017 198.513C213.864 198.923 213.61 199.281 213.306 199.589C213.052 199.845 212.696 199.999 212.34 199.999C212.036 199.999 211.68 199.947 211.375 199.794L211.629 198.461C212.036 198.615 212.442 198.513 212.696 198.154C212.899 197.898 213.052 197.641 213.153 197.334C213.306 196.873 213.458 196.412 213.509 195.899L210.359 186.009H211.985L213.814 192.415Z" fill="#E44E34"/>
<path d="M223.769 187.342H220.518V195.95H219.147V186.061H223.769V187.342Z" fill="#E44E34"/>
<path d="M230.17 190.263L230.322 188.725H230.22L229.56 190.416L226.208 195.95H225.293V186.061H226.716V191.902L226.614 193.388H226.665L227.325 191.749L230.678 186.061H231.592V195.95H230.17V190.263Z" fill="#E44E34"/>
<path d="M115.675 168.69H112.424V177.247H111.052V167.409H115.675V168.69Z" fill="#E44E34"/>
<path d="M118.011 172.328C118.011 172.84 118.062 173.404 118.113 173.916C118.164 174.326 118.265 174.736 118.468 175.146C118.621 175.454 118.824 175.761 119.078 175.966C119.332 176.171 119.688 176.273 120.043 176.273C120.704 176.273 121.262 175.915 121.567 175.351C121.973 174.429 122.126 173.404 122.075 172.379C122.075 171.867 122.024 171.354 121.973 170.791C121.923 170.381 121.821 169.971 121.618 169.561C121.465 169.253 121.262 168.946 121.008 168.741C120.754 168.536 120.399 168.433 120.043 168.433C119.383 168.433 118.824 168.792 118.519 169.356C118.113 170.278 117.961 171.303 118.011 172.328ZM116.538 172.328C116.538 170.534 116.843 169.253 117.453 168.433C118.062 167.614 119.027 167.152 120.043 167.152C121.11 167.101 122.075 167.562 122.685 168.433C123.243 169.305 123.548 170.586 123.548 172.328C123.548 174.121 123.243 175.402 122.634 176.273C122.024 177.093 121.059 177.554 120.043 177.503C118.976 177.554 118.011 177.093 117.402 176.222C116.843 175.351 116.538 174.07 116.538 172.328Z" fill="#E44E34"/>
<path d="M131.218 176.786C130.863 177.042 130.507 177.247 130.101 177.35C129.695 177.452 129.237 177.555 128.78 177.555C128.221 177.555 127.663 177.452 127.205 177.196C126.748 176.94 126.393 176.581 126.139 176.171C125.834 175.659 125.631 175.095 125.58 174.531C125.428 173.814 125.377 173.096 125.377 172.43C125.377 170.739 125.682 169.458 126.291 168.587C126.85 167.716 127.815 167.204 128.831 167.255C129.288 167.255 129.695 167.306 130.152 167.409C130.456 167.511 130.812 167.614 131.117 167.767L130.71 168.997C130.202 168.69 129.593 168.536 128.983 168.536C128.323 168.536 127.713 168.895 127.409 169.458C127.002 170.381 126.799 171.405 126.85 172.43C126.85 172.943 126.901 173.455 126.952 173.968C127.002 174.378 127.155 174.839 127.358 175.197C127.51 175.505 127.764 175.812 128.069 176.017C128.374 176.222 128.78 176.325 129.136 176.325C129.745 176.325 130.304 176.12 130.812 175.71L131.218 176.786Z" fill="#E44E34"/>
<path d="M135.384 173.763L135.79 175.659H135.892L136.196 173.763L137.67 167.409H139.092L136.755 176.273C136.552 176.991 136.4 177.657 136.196 178.272C136.044 178.836 135.841 179.348 135.587 179.86C135.435 180.27 135.181 180.629 134.876 180.936C134.622 181.193 134.266 181.346 133.911 181.346C133.606 181.346 133.25 181.295 132.945 181.141L133.199 179.809C133.352 179.86 133.555 179.912 133.758 179.86C133.961 179.809 134.114 179.707 134.266 179.553C134.469 179.297 134.622 179.041 134.723 178.733C134.876 178.272 135.028 177.811 135.079 177.298L131.93 167.409H133.555L135.384 173.763Z" fill="#E44E34"/>
<path d="M144.984 175.966V168.638H142.749C142.698 169.202 142.698 169.817 142.648 170.483C142.597 171.149 142.546 171.815 142.444 172.481C142.343 173.147 142.241 173.762 142.14 174.377C142.038 174.89 141.886 175.402 141.682 175.914L144.984 175.966ZM147.524 179.758H146.559L146.356 177.247H140.565L140.311 179.758H139.346V175.966H140.26C140.362 175.709 140.514 175.453 140.565 175.146C140.717 174.633 140.87 174.07 140.971 173.506C141.124 172.84 141.225 171.969 141.327 170.944C141.428 169.919 141.479 168.689 141.479 167.357H146.407V175.966H147.575L147.524 179.758Z" fill="#E44E34"/>
<path d="M153.518 172.789L153.112 172.738H152.705C152.4 172.738 152.096 172.789 151.791 172.84C151.537 172.891 151.232 172.994 150.978 173.096C150.775 173.199 150.572 173.404 150.419 173.609C150.267 173.865 150.216 174.172 150.216 174.48C150.165 174.941 150.318 175.402 150.623 175.71C150.877 176.017 151.232 176.171 151.588 176.171C152.045 176.222 152.502 176.068 152.858 175.761C153.112 175.505 153.366 175.249 153.467 174.89L153.518 172.789ZM149.353 167.972C149.759 167.716 150.267 167.511 150.724 167.409C151.283 167.255 151.842 167.204 152.451 167.204C152.908 167.204 153.366 167.255 153.772 167.46C154.077 167.613 154.381 167.818 154.534 168.126C154.737 168.433 154.839 168.741 154.889 169.1C154.94 169.458 154.991 169.868 154.991 170.227C154.991 170.995 154.991 171.764 154.94 172.533C154.889 173.301 154.889 174.019 154.889 174.685C154.889 175.197 154.889 175.659 154.94 176.068C154.991 176.478 155.042 176.888 155.143 177.298H154.026L153.67 176.12H153.62C153.416 176.478 153.112 176.786 152.756 176.991C152.299 177.247 151.791 177.401 151.232 177.35C150.572 177.35 149.962 177.093 149.505 176.581C149.048 176.017 148.794 175.3 148.845 174.531C148.845 174.019 148.946 173.558 149.099 173.096C149.302 172.738 149.556 172.379 149.911 172.174C150.267 171.918 150.673 171.764 151.131 171.662C151.638 171.559 152.197 171.508 152.705 171.508H153.112C153.264 171.508 153.366 171.508 153.518 171.508C153.569 171.098 153.569 170.739 153.569 170.432C153.62 169.868 153.518 169.356 153.264 168.843C152.959 168.485 152.502 168.331 152.045 168.382C151.638 168.382 151.232 168.433 150.877 168.536C150.521 168.638 150.165 168.792 149.81 168.946L149.353 167.972Z" fill="#E44E34"/>
<path d="M159.055 175.71C159.258 175.864 159.461 176.017 159.664 176.068C159.969 176.171 160.274 176.222 160.579 176.222C161.29 176.222 161.899 175.812 162.204 175.146C162.661 174.224 162.864 173.148 162.814 172.123C162.814 171.61 162.763 171.098 162.712 170.637C162.661 170.227 162.56 169.868 162.357 169.458C162.204 169.151 162.001 168.895 161.747 168.69C161.493 168.485 161.188 168.433 160.833 168.433C159.867 168.433 159.258 168.997 159.004 170.176L159.055 175.71ZM157.632 167.409H158.648L158.852 168.485H158.953C159.41 167.665 160.274 167.152 161.239 167.204C162.153 167.152 163.068 167.614 163.576 168.382C164.084 169.151 164.338 170.432 164.338 172.174C164.338 172.943 164.236 173.66 164.084 174.429C163.931 175.044 163.677 175.607 163.372 176.12C163.068 176.581 162.712 176.94 162.255 177.196C161.798 177.452 161.29 177.555 160.731 177.555C160.426 177.555 160.121 177.555 159.817 177.503C159.563 177.452 159.309 177.35 159.106 177.196V181.244H157.683L157.632 167.409Z" fill="#E44E34"/>
<path d="M171.957 176.786C171.601 177.042 171.246 177.247 170.84 177.35C170.433 177.452 169.976 177.555 169.519 177.555C168.96 177.555 168.401 177.452 167.944 177.196C167.487 176.94 167.131 176.581 166.877 176.171C166.573 175.659 166.369 175.095 166.319 174.531C166.166 173.814 166.115 173.096 166.115 172.43C166.115 170.739 166.42 169.458 167.03 168.587C167.589 167.716 168.554 167.204 169.57 167.255C170.027 167.255 170.433 167.306 170.89 167.409C171.195 167.511 171.551 167.614 171.855 167.767L171.449 168.997C170.941 168.69 170.332 168.536 169.722 168.536C169.062 168.536 168.452 168.895 168.147 169.458C167.741 170.381 167.538 171.405 167.589 172.43C167.589 172.943 167.639 173.455 167.69 173.968C167.741 174.378 167.893 174.839 168.097 175.197C168.249 175.505 168.503 175.812 168.808 176.017C169.112 176.222 169.519 176.325 169.874 176.325C170.484 176.325 171.043 176.12 171.551 175.71L171.957 176.786Z" fill="#E44E34"/>
<path d="M178.815 168.69H176.376V177.247H175.005V168.69H172.567V167.409H178.815V168.69Z" fill="#E44E34"/>
<path d="M181.761 176.017C181.964 176.017 182.167 176.068 182.319 176.068C182.472 176.068 182.726 176.068 182.98 176.068C183.488 176.12 183.996 175.966 184.453 175.659C184.808 175.3 184.961 174.787 184.91 174.326C184.91 173.916 184.808 173.506 184.504 173.148C184.097 172.789 183.589 172.635 183.081 172.687H181.761V176.017ZM183.234 171.61C183.386 171.61 183.589 171.559 183.742 171.508C183.894 171.405 184.047 171.303 184.199 171.149C184.351 170.996 184.453 170.842 184.504 170.637C184.605 170.432 184.605 170.227 184.605 170.022C184.656 169.612 184.504 169.202 184.25 168.895C183.894 168.638 183.437 168.485 182.98 168.536C182.675 168.536 182.421 168.536 182.218 168.536L181.71 168.587V171.61H183.234ZM180.338 167.409L181.557 167.306C181.964 167.255 182.472 167.255 183.081 167.255C184.148 167.255 184.91 167.46 185.367 167.87C185.875 168.331 186.129 168.997 186.078 169.714C186.078 170.176 185.977 170.637 185.774 171.047C185.52 171.508 185.164 171.867 184.707 172.02V172.123C185.215 172.225 185.723 172.482 186.028 172.943C186.332 173.404 186.434 173.968 186.434 174.531C186.536 175.402 186.18 176.222 185.52 176.786C184.707 177.298 183.793 177.555 182.827 177.503C182.37 177.503 181.964 177.503 181.557 177.452C181.151 177.401 180.745 177.401 180.389 177.35L180.338 167.409Z" fill="#E44E34"/>
<path d="M193.393 171.303C193.444 170.534 193.342 169.817 192.987 169.151C192.733 168.69 192.276 168.433 191.768 168.433C191.209 168.433 190.65 168.69 190.345 169.151C189.939 169.817 189.736 170.534 189.736 171.303H193.393ZM194.511 176.581C194.155 176.888 193.749 177.093 193.292 177.247C192.784 177.401 192.276 177.503 191.768 177.503C191.209 177.503 190.65 177.401 190.193 177.145C189.736 176.888 189.38 176.53 189.075 176.12C188.771 175.607 188.567 175.044 188.415 174.48C188.263 173.763 188.212 173.045 188.212 172.328C188.212 170.637 188.517 169.356 189.126 168.485C189.685 167.613 190.701 167.101 191.717 167.152C192.072 167.152 192.428 167.204 192.784 167.306C193.139 167.409 193.495 167.613 193.749 167.87C194.053 168.177 194.307 168.587 194.46 169.048C194.663 169.663 194.765 170.329 194.714 170.995C194.714 171.2 194.714 171.457 194.663 171.713C194.612 171.969 194.612 172.225 194.612 172.533H189.634C189.634 173.045 189.685 173.558 189.787 174.07C189.837 174.48 189.99 174.89 190.244 175.249C190.447 175.556 190.701 175.812 191.006 176.017C191.361 176.222 191.768 176.273 192.123 176.273C192.479 176.273 192.834 176.222 193.19 176.068C193.495 175.966 193.749 175.812 194.003 175.607L194.511 176.581Z" fill="#E44E34"/>
<path d="M201.927 172.891H198.523V177.247H197.101V167.409H198.523V171.559H201.927V167.409H203.349V177.247H201.927V172.891Z" fill="#E44E34"/>
<path d="M210.816 172.891H207.413V177.247H205.991V167.409H207.413V171.559H210.816V167.409H212.239V177.247H210.816V172.891Z" fill="#E44E34"/>
<path d="M221.687 167.408H223.109V177.247H221.687V167.408ZM216.302 175.966C216.658 176.017 217.013 176.068 217.369 176.068C217.877 176.119 218.334 175.914 218.69 175.556C218.944 175.146 219.096 174.633 219.045 174.121C219.096 173.609 218.944 173.147 218.69 172.737C218.385 172.379 217.877 172.174 217.42 172.225C217.217 172.225 217.064 172.225 216.861 172.276C216.658 172.276 216.455 172.328 216.302 172.379V175.966ZM216.302 171.149C216.556 171.098 216.81 171.046 217.064 171.046C217.318 171.046 217.521 170.995 217.724 170.995C218.182 170.995 218.639 171.046 219.096 171.2C219.452 171.354 219.706 171.559 219.96 171.815C220.163 172.071 220.315 172.43 220.417 172.737C220.518 173.096 220.569 173.506 220.569 173.916C220.569 175.095 220.315 175.966 219.756 176.529C219.248 177.093 218.334 177.349 217.115 177.349C216.353 177.349 215.642 177.298 214.88 177.247V167.357H216.302V171.149Z" fill="#E44E34"/>
<path d="M230.576 171.303C230.678 170.534 230.525 169.817 230.17 169.151C229.916 168.69 229.458 168.433 228.951 168.433C228.392 168.433 227.833 168.69 227.528 169.151C227.122 169.817 226.919 170.534 226.919 171.303H230.576ZM231.694 176.581C231.338 176.888 230.932 177.093 230.474 177.247C229.966 177.401 229.458 177.503 228.951 177.503C228.392 177.503 227.833 177.401 227.376 177.145C226.919 176.888 226.563 176.53 226.258 176.12C225.954 175.607 225.75 175.044 225.598 174.48C225.446 173.763 225.395 173.045 225.395 172.328C225.395 170.637 225.7 169.356 226.309 168.485C226.868 167.613 227.884 167.101 228.9 167.152C229.255 167.152 229.611 167.204 229.966 167.306C230.322 167.409 230.678 167.613 230.932 167.87C231.236 168.177 231.49 168.587 231.643 169.048C231.846 169.663 231.947 170.329 231.897 170.995C231.897 171.2 231.897 171.457 231.846 171.713C231.795 171.969 231.795 172.225 231.795 172.533H226.817C226.817 173.045 226.868 173.558 226.969 174.07C227.02 174.48 227.173 174.89 227.376 175.249C227.579 175.556 227.833 175.812 228.138 176.017C228.493 176.222 228.9 176.273 229.255 176.273C229.611 176.273 229.966 176.222 230.322 176.068C230.627 175.966 230.881 175.812 231.135 175.607L231.694 176.581Z" fill="#E44E34"/>
</g>
<defs>
<clipPath id="clip0_1271_404">
<rect width="264" height="200" fill="white"/>
</clipPath>
</defs>
</svg>
