<svg width="17" height="23" viewBox="0 0 17 23" fill="none" xmlns="http://www.w3.org/2000/svg">
<path d="M15.4433 17.0919C14.7458 16.0661 14.008 15.4455 13.1878 15.1947C12.0012 14.8319 10.9161 15.3255 9.90614 15.8623C9.78998 15.9241 9.66959 15.9327 9.52735 15.8892C8.87553 15.69 7.97842 14.5232 6.86093 12.4212C5.54623 9.94838 5.19851 8.52497 5.8272 8.19053C7.5312 7.28486 8.33851 6.10152 7.10006 3.00547C6.65691 1.89643 6.08932 1.24974 5.36491 1.02826C4.38797 0.729582 3.40656 1.28345 2.54067 1.77218C2.39098 1.85666 2.24957 1.93646 2.11258 2.0093C1.14562 2.52339 0.652189 4.13869 0.792638 6.33048C0.946723 8.73531 1.83543 11.5718 3.29509 14.3175C4.42402 16.4405 5.7915 18.2954 7.24302 19.7039C8.51025 20.9336 9.8417 21.792 10.9857 22.1417C10.9855 22.1417 10.9858 22.1417 10.9857 22.1417C11.7016 22.3606 12.3314 22.3823 12.8125 22.1822C13.7899 21.7757 15.6073 21.0249 16.0315 19.6027C16.2588 18.8399 16.0599 17.9991 15.4433 17.0919Z" fill="#E04E39"/>
</svg>
