<svg width="18" height="18" viewBox="0 0 18 18" fill="none" xmlns="http://www.w3.org/2000/svg">
<g clip-path="url(#clip0_1022_498)">
<path d="M9.41272 0H10.6271V1.67442C12.6737 1.67442 14.7201 1.6786 16.7666 1.66806C17.1122 1.68262 17.4924 1.65767 17.7929 1.86899C18.0034 2.17875 17.979 2.57224 17.9933 2.92806C17.9831 6.56154 17.9872 10.193 17.9893 13.8243C17.9792 14.4335 18.0445 15.055 17.9198 15.6558C17.838 16.0912 17.3269 16.1015 16.9854 16.1163C14.8674 16.1225 12.7473 16.1121 10.6271 16.1163V18H9.35744C6.24167 17.4201 3.11969 16.8845 0 16.3256V1.6766C3.13834 1.11767 6.27651 0.567293 9.41272 0Z" fill="#207245"/>
<path d="M10.6274 2.30225H17.3742V15.4883H10.6274V14.2325H12.263V12.7674H10.6274V11.9302H12.263V10.465H10.6274V9.62783H12.263V8.16271H10.6274V7.3255H12.263V5.86039H10.6274V5.02318H12.263V3.55806H10.6274V2.30225Z" fill="white"/>
<path d="M13.0811 3.55811H15.9433V5.02322H13.0811V3.55811Z" fill="#207245"/>
<path d="M6.05624 5.51932C6.51829 5.48584 6.98246 5.45653 7.44647 5.43359C6.90143 6.57951 6.35149 7.72299 5.79667 8.86398C6.35898 10.0361 6.93323 11.1998 7.4975 12.3719C7.00533 12.343 6.51334 12.3109 6.02156 12.2756C5.674 11.4027 5.25072 10.5593 5.00129 9.64677C4.72341 10.4965 4.32662 11.2981 4.00785 12.1313C3.56003 12.1249 3.11221 12.1062 2.66455 12.0872C3.1899 11.0345 3.69692 9.97328 4.23863 8.92677C3.7787 7.84877 3.27364 6.79188 2.79932 5.72025C3.2491 5.69296 3.69889 5.66584 4.14867 5.64072C4.45321 6.45918 4.78638 7.26691 5.03809 8.1063C5.3078 7.21685 5.71064 6.37964 6.05624 5.51932Z" fill="white"/>
<path d="M13.0811 5.86035H15.9433V7.32547H13.0811V5.86035ZM13.0811 8.16268H15.9433V9.62779H13.0811V8.16268ZM13.0811 10.465H15.9433V11.9301H13.0811V10.465ZM13.0811 12.7673H15.9433V14.2324H13.0811V12.7673Z" fill="#207245"/>
</g>
<defs>
<clipPath id="clip0_1022_498">
<rect width="18" height="18" fill="white" transform="translate(-0.000976562)"/>
</clipPath>
</defs>
</svg>
