<svg width="27" height="27" viewBox="0 0 27 27" fill="none" xmlns="http://www.w3.org/2000/svg">
<g clip-path="url(#clip0_783_152)">
<path d="M22.519 17.0131C22.3942 16.146 21.7247 15.47 20.8628 15.2685C17.5127 14.4833 16.6729 12.5541 16.5312 10.4143C15.9371 10.3038 14.8802 10.1842 13.0862 10.1842C11.2922 10.1842 10.2353 10.3038 9.64116 10.4143C9.49946 12.5541 8.65966 14.4833 5.30956 15.2685C4.44766 15.4713 3.77816 16.146 3.65336 17.0131L3.00726 21.4877C2.77976 23.0633 3.93676 24.4842 5.54616 24.4842H20.6262C22.2343 24.4842 23.3926 23.0633 23.1651 21.4877L22.519 17.0131ZM13.0862 21.2238C11.2727 21.2238 9.80236 19.7678 9.80236 17.9738C9.80236 16.1798 11.2727 14.7238 13.0862 14.7238C14.8997 14.7238 16.37 16.1798 16.37 17.9738C16.37 19.7678 14.8984 21.2238 13.0862 21.2238ZM26.0212 8.88421C25.99 6.93421 21.0266 3.68551 13.0862 3.68421C5.14446 3.68551 0.181058 6.93421 0.151158 8.88421C0.121258 10.8342 0.178458 13.3718 3.44666 12.9493C7.26996 12.454 7.03466 11.1189 7.03466 9.21051C7.03466 7.87931 10.1443 7.55821 13.0862 7.55821C16.0281 7.55821 19.1364 7.87931 19.1377 9.21051C19.1377 11.1189 18.9024 12.454 22.7257 12.9493C25.9926 13.3718 26.0511 10.8342 26.0212 8.88421Z" fill="#E04E39"/>
</g>
<defs>
<clipPath id="clip0_783_152">
<rect width="26" height="26" fill="white" transform="translate(0.384277 0.684212)"/>
</clipPath>
</defs>
</svg>
