<svg width="17" height="17" viewBox="0 0 17 17" fill="none" xmlns="http://www.w3.org/2000/svg">
<path d="M16.126 2.21948H8.94824V14.7806H16.126C16.3741 14.7806 16.5746 14.5801 16.5746 14.332V2.66809C16.5746 2.42001 16.3741 2.21948 16.126 2.21948Z" fill="#2196F3"/>
<path d="M8.94824 4.46289H15.2288V5.35966H8.94824V4.46289ZM8.94824 6.25689H15.2288V7.15411H8.94824V6.25689ZM8.94824 8.05178H15.2288V8.949H8.94824V8.05178ZM8.94824 9.84622H15.2288V10.743H8.94824V9.84622ZM8.94824 11.6402H15.2288V12.5379H8.94824V11.6402Z" fill="white"/>
<path d="M9.84564 16.575L0.424805 14.7806V2.21949L9.84564 0.425049V16.575Z" fill="#0D47A1"/>
<path d="M7.22889 11.6457H6.01002L5.20162 7.61357C5.15766 7.39958 5.13209 7.16675 5.12356 6.90656H5.10921C5.08992 7.19232 5.05986 7.42784 5.02083 7.61357L4.1909 11.6457H2.92268L1.63965 5.35885H2.83968L3.52875 9.54349C3.55656 9.72473 3.57855 9.96429 3.5929 10.2644H3.61174C3.62027 10.041 3.65571 9.79292 3.71178 9.52644L4.59555 5.3584H5.77181L6.57258 9.57714C6.60039 9.73325 6.62596 9.95666 6.64884 10.255H6.66275C6.67172 10.024 6.6955 9.79068 6.73453 9.55381L7.40879 5.3584H8.51596L7.22889 11.6457Z" fill="white"/>
</svg>
