<svg width="18" height="18" fill="none" xmlns="http://www.w3.org/2000/svg"><g clip-path="url(#a)"><path d="M9.413 0h1.214v1.674c2.047 0 4.093.005 6.14-.006.345.015.725-.01 1.026.201.21.31.186.703.2 1.06-.01 3.633-.006 7.264-.004 10.895-.01.61.055 1.231-.07 1.832-.081.435-.592.446-.934.46-2.118.006-4.238-.004-6.358 0V18h-1.27C6.242 17.42 3.12 16.884 0 16.326V1.676C3.138 1.119 6.277.568 9.413 0Z" fill="#207245"/><path d="M10.627 2.302h6.747v13.186h-6.747v-1.255h1.636v-1.466h-1.636v-.837h1.636v-1.465h-1.636v-.837h1.636V8.163h-1.636v-.838h1.636V5.86h-1.636v-.837h1.636V3.558h-1.636V2.302Z" fill="#fff"/><path d="M13.081 3.558h2.862v1.465h-2.862V3.558Z" fill="#207245"/><path d="M6.056 5.52c.462-.034.926-.063 1.39-.086a441.063 441.063 0 0 1-1.65 3.43c.563 1.172 1.137 2.336 1.701 3.508-.492-.029-.984-.061-1.475-.096-.348-.873-.771-1.717-1.02-2.63-.279.85-.675 1.652-.994 2.485a47.797 47.797 0 0 1-1.343-.044c.525-1.053 1.032-2.114 1.574-3.16-.46-1.078-.965-2.135-1.44-3.207l1.35-.08c.304.82.637 1.627.89 2.466.269-.89.672-1.726 1.017-2.587Z" fill="#fff"/><path d="M13.081 5.86h2.862v1.465h-2.862V5.86Zm0 2.303h2.862v1.465h-2.862V8.163Zm0 2.302h2.862v1.465h-2.862v-1.465Zm0 2.302h2.862v1.465h-2.862v-1.465Z" fill="#207245"/></g><defs><clipPath id="a"><path fill="#fff" transform="translate(-.001)" d="M0 0h18v18H0z"/></clipPath></defs></svg>