<svg width="27" height="27" fill="none" xmlns="http://www.w3.org/2000/svg"><g clip-path="url(#a)"><path d="M22.519 17.013c-.125-.867-.794-1.543-1.656-1.745-3.35-.785-4.19-2.714-4.332-4.854-.594-.11-1.65-.23-3.445-.23-1.794 0-2.85.12-3.445.23-.142 2.14-.981 4.07-4.331 4.854-.862.203-1.532.878-1.657 1.745l-.646 4.475c-.227 1.575.93 2.996 2.54 2.996h15.08c1.607 0 2.766-1.42 2.538-2.996l-.646-4.475Zm-9.433 4.21c-1.813 0-3.284-1.455-3.284-3.25 0-1.793 1.47-3.25 3.284-3.25 1.814 0 3.284 1.457 3.284 3.25 0 1.795-1.472 3.25-3.284 3.25ZM26.021 8.885c-.031-1.95-4.994-5.198-12.935-5.2C5.144 3.686.181 6.934.151 8.884c-.03 1.95.027 4.488 3.296 4.065 3.823-.495 3.588-1.83 3.588-3.738 0-1.332 3.11-1.653 6.051-1.653 2.942 0 6.05.321 6.052 1.653 0 1.908-.236 3.243 3.588 3.738 3.267.423 3.325-2.115 3.295-4.065Z" fill="#E04E39"/></g><defs><clipPath id="a"><path fill="#fff" transform="translate(.384 .684)" d="M0 0h26v26H0z"/></clipPath></defs></svg>