<svg width="17" height="17" fill="none" xmlns="http://www.w3.org/2000/svg"><path d="M16.126 2.22H8.948v12.56h7.178c.248 0 .449-.2.449-.448V2.668c0-.248-.2-.449-.449-.449Z" fill="#2196F3"/><path d="M8.948 4.463h6.28v.897h-6.28v-.897Zm0 1.794h6.28v.897h-6.28v-.897Zm0 1.795h6.28v.897h-6.28v-.897Zm0 1.794h6.28v.897h-6.28v-.897Zm0 1.794h6.28v.898h-6.28v-.898Z" fill="#fff"/><path d="M9.846 16.575.425 14.781V2.219L9.845.425v16.15Z" fill="#0D47A1"/><path d="M7.229 11.646H6.01l-.808-4.032a4.186 4.186 0 0 1-.078-.707h-.015a5.24 5.24 0 0 1-.088.707l-.83 4.032H2.923L1.64 5.359h1.2l.689 4.184c.028.182.05.421.064.721h.019a4.47 4.47 0 0 1 .1-.738l.884-4.168h1.176l.8 4.22c.028.155.054.379.077.677h.014c.009-.231.032-.464.072-.701l.674-4.196h1.107l-1.287 6.288Z" fill="#fff"/></svg>