<svg width="17" height="23" fill="none" xmlns="http://www.w3.org/2000/svg"><path d="M15.443 17.092c-.697-1.026-1.435-1.646-2.255-1.897-1.187-.363-2.272.13-3.282.667a.47.47 0 0 1-.379.027c-.651-.199-1.549-1.366-2.666-3.468-1.315-2.473-1.662-3.896-1.034-4.23C7.531 7.285 8.34 6.1 7.1 3.005 6.657 1.896 6.09 1.25 5.365 1.028c-.977-.298-1.958.255-2.824.744-.15.085-.291.164-.428.237-.967.514-1.46 2.13-1.32 4.321.154 2.405 1.042 5.242 2.502 7.988 1.129 2.123 2.497 3.977 3.948 5.386 1.267 1.23 2.599 2.088 3.743 2.438.716.219 1.345.24 1.826.04.978-.406 2.795-1.157 3.22-2.58.227-.762.028-1.603-.589-2.51Z" fill="#E04E39"/></svg>