<svg width="264" height="200" fill="none" xmlns="http://www.w3.org/2000/svg"><g clip-path="url(#a)"><path d="M207.819 125.954v-23.316h7.772v10.864c0 .563-.051 1.127-.152 1.691h.304l8.433-12.555h7.416v23.316h-7.721v-10.966c0-.513.051-1.025.152-1.538h-.355l-8.483 12.504h-7.366Zm-16.102-6.662c2.794 0 4.673-2.203 4.673-4.97 0-2.768-1.879-5.073-4.673-5.073s-4.673 2.203-4.673 5.073c0 2.869 1.93 4.97 4.673 4.97Zm0-17.269c7.365 0 12.902 5.278 12.902 12.299 0 7.02-5.486 12.246-12.902 12.246-7.416 0-12.801-5.278-12.801-12.246 0-6.969 5.537-12.299 12.801-12.299ZM37.956 150.294c4.674 0 7.823-3.434 7.823-7.943 0-4.612-3.2-8.096-7.823-8.096-4.571 0-7.772 3.484-7.772 8.096.051 4.509 3.2 7.943 7.772 7.943Zm0-20.292c7.264 0 12.395 5.278 12.395 12.349 0 7.02-5.13 12.196-12.395 12.196-7.162 0-12.343-5.227-12.343-12.196.05-7.123 5.181-12.349 12.343-12.349Zm104.336 3.843c4.165 0 6.35 2.716 6.705 6.303h-13.359c.66-3.69 3.2-6.303 6.654-6.303Zm10.921 9.941c.051-.461.051-.974.051-1.435 0-7.071-3.657-12.349-11.226-12.349-6.502 0-11.226 5.278-11.226 12.349 0 .512.051.974.051 1.435.508 6.098 4.368 10.761 12.445 10.761 3.911 0 7.213-1.23 9.6-3.177l-1.828-3.331c-2.235 1.64-4.877 2.562-7.671 2.562-5.028 0-7.467-2.767-7.924-6.815h17.728Zm20.217-13.169v9.531h-12.343v-9.531h-4.623v23.315h4.623v-10.146h12.343v10.146h4.623v-23.315h-4.623Zm28.852 0h-21.029v4.15h8.229v19.165h4.571v-19.165h8.229v-4.15Zm29.361 0h-4.623v23.315h4.623v-23.315ZM63.608 141.685v-.205c.305-.103.61-.307.813-.564.407-.461 8.839-10.248 8.839-10.248h-5.181l-8.128 9.582h-1.828v-9.582H53.5v23.315h4.623v-10.146h2.082l8.737 10.146h5.74L64.422 142.3c-.153-.308-.458-.513-.813-.615Zm149.189 8.762c-1.422 0-2.743-.102-2.743-.102v-8.455a10.122 10.122 0 0 1 2.794-.256c3.861 0 5.537 1.486 5.537 4.304 0 2.818-1.473 4.458-5.588 4.509Zm.864-12.708c-1.168 0-2.388.103-3.556.256v-7.378h-4.622v23.315s3.809.358 7.67.358c7.213 0 9.6-4.458 9.6-8.557s-2.082-7.994-9.092-7.994Zm-202.17 12.555c-4.622 0-7.111-3.434-7.01-7.943.102-4.612 2.693-8.096 7.366-8.096 2.54 0 5.994 2.357 5.994 6.661v6.457a8.045 8.045 0 0 1-6.35 2.921Zm6.553-19.677-.101 2.92h-.305c-1.575-2.152-4.013-3.484-6.705-3.587-6.756 0-10.77 5.278-10.922 12.35-.152 7.02 3.912 12.195 10.668 12.195 3.098 0 5.028-.871 6.908-3.125h.305v2.101c0 4.509-3.099 6.302-6.604 6.302-2.59-.051-5.08-.768-7.264-2.152L2.5 161.464a17.099 17.099 0 0 0 8.788 2.46c6.451 0 11.226-3.894 11.226-11.376v-21.931h-4.47Zm74.925 0v16.909a7.615 7.615 0 0 1-6.045 2.768c-4.216 0-6.146-3.434-6.045-7.943v-11.734h-4.47v11.734c-.152 7.02 2.59 12.196 9.347 12.196 3.098 0 5.18-.923 6.908-3.126h.305v2.101c0 4.509-3.099 6.303-6.604 6.303-2.59-.052-5.08-.769-7.264-2.153l-1.524 3.844c2.642 1.588 5.69 2.408 8.788 2.408 6.451 0 11.226-3.894 11.226-11.376v-21.931H92.97Zm30.325-.001s-7.619 10.813-7.822 11.12c-.153.205-.254.41-.305.615h-.153c-.101-.205-.203-.461-.355-.615l-8.432-11.12h-4.369v23.316h4.623v-14.861c0-.563-.051-1.076-.204-1.639h.204l8.483 11.478h.152l7.873-11.478h.204c-.153.512-.204 1.076-.204 1.588v14.86h4.623v-23.315h-4.318v.051Zm46.326-27.978s-6.502 8.507-6.705 8.814c-.152.154-.305.359-.355.615h-.356a3.811 3.811 0 0 0-.355-.615l-7.163-8.814h-6.095v23.316h7.467v-9.788c0-.563-.051-1.127-.153-1.691h.356l5.994 6.969h.305l5.587-6.969h.356c-.102.564-.203 1.128-.153 1.691v9.788h7.468v-23.316h-6.198Z" fill="#4A2015"/><path d="M217.775 56.315V32.641h-18.489v23.674c0 8.353 4.419 16.04 11.581 20.19l20.827 12.093V67.025l-11.582-6.713c-1.473-.768-2.337-2.306-2.337-3.997Z" fill="#C79B65"/><path d="m231.643 79.323 20.826-12.093C259.631 63.08 264 55.342 264 47.04V0h-32.357v18.652h13.867V46.99c0 1.691-.863 3.228-2.286 4.048l-11.581 6.713v21.573Z" fill="#E44E34"/><path d="m231.643 0-32.408 32.641h32.408V0Z" fill="#4A2015"/><path d="m59.646 190.263.102-1.538h-.05l-.712 1.691-3.302 5.534h-.914v-9.889h1.422v5.841l-.152 1.486h.101l.66-1.639 3.302-5.688h.966v9.889h-1.423v-5.687Zm15.138-.205.152-1.845h-.102l-.558 1.64-1.829 3.792h-.508l-1.93-3.792-.508-1.64h-.102l.153 1.845v5.892h-1.27v-9.889h1.422l2.134 4.253.406 1.332h.05l.458-1.332 1.98-4.253h1.474v9.889h-1.422v-5.892Zm6.552 2.357.407 1.896h.101l.305-1.896 1.473-6.354h1.422l-2.336 8.865c-.203.717-.356 1.383-.559 1.998a8.556 8.556 0 0 1-.61 1.589 3.06 3.06 0 0 1-.71 1.076c-.255.256-.61.41-.966.41-.305 0-.66-.052-.965-.205l.254-1.333c.406.154.813.052 1.067-.307a2.62 2.62 0 0 0 .457-.82c.152-.461.305-.922.356-1.435l-3.15-9.89h1.626l1.828 6.406Zm10.109-.871H88.04v4.406h-1.37v-9.889h1.371v4.202h3.404v-4.202h1.422v9.889h-1.422v-4.406Zm8.94-1.281.152-1.538h-.101l-.66 1.691-3.302 5.534h-.966v-9.889h1.423v5.841l-.102 1.486h.051l.66-1.639 3.353-5.688h.914v9.889h-1.422v-5.687Zm11.328 8.147h-1.016l-.204-2.46H104.5v-9.889h1.422v8.608h3.251v-8.608h1.371v8.608h1.169v3.741Zm6.705-8.147.152-1.538h-.101l-.661 1.691-3.352 5.534h-.915v-9.889h1.423v5.841l-.102 1.486h.051l.66-1.639 3.353-5.688h.914v9.889h-1.422v-5.687Zm8.838-2.921h-3.301v8.608h-1.423v-9.889h6.096v9.889h-1.372v-8.608Zm8.229 4.099-.406-.051h-.406c-.305 0-.61.051-.915.102a4.981 4.981 0 0 0-.812.257c-.204.102-.407.307-.559.512-.153.256-.203.564-.203.871-.051.461.101.871.355 1.23.254.307.61.461.965.461.457.051.915-.102 1.27-.41.254-.256.508-.512.61-.871v-2.101h.101Zm-4.216-4.817a4.57 4.57 0 0 1 1.372-.563c.559-.154 1.117-.205 1.727-.205.457 0 .914.051 1.321.256.304.154.609.359.761.666.204.308.305.615.356.974.051.358.102.768.102 1.127 0 .769 0 1.537-.051 2.306-.051.769-.051 1.486-.051 2.152 0 .513 0 .974.051 1.384.051.41.101.82.203 1.229h-1.117l-.356-1.178h-.051a2.357 2.357 0 0 1-.863.871c-.458.256-.966.41-1.524.359-.661 0-1.27-.257-1.727-.769a2.928 2.928 0 0 1-.661-2.05c0-.512.102-.973.254-1.434.203-.359.457-.718.813-.923.356-.256.762-.41 1.219-.512a8.162 8.162 0 0 1 1.575-.154h.813c.05-.41.05-.769.05-1.076a2.88 2.88 0 0 0-.304-1.589c-.305-.358-.762-.512-1.22-.461-.406 0-.812.052-1.168.154a9.225 9.225 0 0 0-1.067.41l-.457-.974Zm12.547.718h-2.134a600.2 600.2 0 0 1-.152 3.228 17.124 17.124 0 0 1-.356 2.767c-.101.666-.355 1.332-.711 1.947a1.365 1.365 0 0 1-1.219.718c-.203 0-.355 0-.559-.052a.82.82 0 0 1-.457-.153l.203-1.23c.254.102.508.051.762-.051.305-.256.508-.615.559-1.025.203-.871.305-1.742.407-2.613.101-1.179.152-2.819.203-4.817h4.825v9.889h-1.422v-8.608h.051Zm5.537 7.327c.355.052.711.103 1.066.103 1.22 0 1.829-.666 1.829-1.947.051-.513-.102-.974-.457-1.384a1.717 1.717 0 0 0-1.372-.512c-.203 0-.355 0-.558.051-.204 0-.407.051-.559.102l.051 3.587Zm0-4.816c.254-.052.508-.103.762-.103s.457-.051.66-.051c.457 0 .965.051 1.372.205.355.154.66.359.914.615s.406.615.508.922c.101.359.152.769.152 1.179 0 1.178-.305 2.049-.863 2.613-.559.564-1.473.82-2.693.82-.761 0-1.473-.051-2.235-.103v-9.889h1.423v3.792Zm11.124 1.691h-3.353v4.406h-1.422v-9.889h1.422v4.202h3.353v-4.202h1.422v9.889h-1.422v-4.406Zm10.921-5.483h1.423v9.89h-1.423v-9.89Zm-5.435 8.608a7.41 7.41 0 0 0 1.067.103c.508.051.965-.154 1.32-.512.254-.41.407-.923.356-1.435.051-.513-.102-.974-.356-1.384a1.509 1.509 0 0 0-1.269-.512c-.204 0-.356 0-.559.051a1.82 1.82 0 0 0-.559.102v3.587Zm0-4.816c.254-.052.508-.103.762-.103s.457-.051.66-.051c.458 0 .915.051 1.372.205.355.154.609.359.863.615.204.256.356.615.458.922.101.359.152.769.152 1.179 0 1.178-.254 2.049-.813 2.613-.508.564-1.422.82-2.641.82-.762 0-1.473-.051-2.235-.102v-9.89h1.422v3.792Zm14.274.102c.051-.768-.051-1.486-.406-2.152a1.367 1.367 0 0 0-1.22-.717c-.558 0-1.117.256-1.422.717a4.063 4.063 0 0 0-.609 2.152h3.657Zm1.117 5.278c-.355.308-.762.513-1.219.666-.508.154-1.016.256-1.524.256-.558 0-1.117-.102-1.574-.358-.457-.256-.813-.615-1.118-1.025-.305-.512-.508-1.076-.66-1.64a10.253 10.253 0 0 1-.203-2.152c0-1.691.304-2.972.914-3.843a2.94 2.94 0 0 1 2.591-1.332c.355 0 .711.051 1.066.102.356.102.711.307.965.564.305.307.559.717.712 1.178a5.04 5.04 0 0 1 .254 1.947c0 .205 0 .462-.051.718-.051.256-.051.512-.051.82h-4.978c0 .512.051 1.025.152 1.537.051.41.204.82.458 1.179.203.307.457.563.761.768.356.205.762.256 1.118.256a2.63 2.63 0 0 0 1.067-.205c.304-.102.558-.256.812-.461l.508 1.025Zm9.499-2.818.407 1.896h.101l.305-1.896 1.473-6.354h1.422l-2.336 8.865c-.203.717-.356 1.383-.559 1.998a8.53 8.53 0 0 1-.61 1.589 3.05 3.05 0 0 1-.711 1.076c-.254.256-.609.41-.965.41-.305 0-.66-.052-.965-.205l.254-1.333c.406.154.813.052 1.067-.307a2.62 2.62 0 0 0 .457-.82c.152-.461.305-.922.355-1.435l-3.149-9.89h1.626l1.828 6.406Zm10.617 3.023c-.356.256-.712.461-1.118.564-.406.102-.863.205-1.321.205-.558 0-1.117-.103-1.574-.359a2.945 2.945 0 0 1-1.067-1.025c-.305-.512-.508-1.076-.559-1.64a10.16 10.16 0 0 1-.203-2.101c0-1.691.305-2.972.914-3.843a2.858 2.858 0 0 1 2.54-1.332c.457 0 .864.051 1.321.154.305.102.66.205.965.358l-.406 1.23a3.361 3.361 0 0 0-1.727-.461c-.661 0-1.27.359-1.575.922a6.604 6.604 0 0 0-.559 2.972c0 .513.051 1.025.102 1.538.051.41.203.871.406 1.23.152.307.406.614.711.819.305.205.711.308 1.067.308.61 0 1.168-.205 1.676-.615l.407 1.076Zm5.79-8.096h-2.133a915.846 915.846 0 0 1-.152 3.228 17.237 17.237 0 0 1-.356 2.767c-.102.666-.356 1.332-.711 1.947a1.365 1.365 0 0 1-1.219.718c-.203 0-.356 0-.559-.052a.817.817 0 0 1-.457-.153l.203-1.23c.254.102.508.051.762-.051.305-.256.508-.615.559-1.025.203-.871.305-1.742.406-2.613.102-1.179.153-2.819.203-4.817h4.826v9.889h-1.372v-8.608Zm6.554 5.073.406 1.896h.101l.305-1.896 1.473-6.354h1.423l-2.337 8.865c-.203.717-.356 1.383-.559 1.998a8.526 8.526 0 0 1-.609 1.589c-.153.41-.407.768-.711 1.076-.254.256-.61.41-.966.41-.304 0-.66-.052-.965-.205l.254-1.333c.407.154.813.052 1.067-.307a2.6 2.6 0 0 0 .457-.82c.153-.461.305-.922.356-1.435l-3.15-9.89h1.626l1.829 6.406Zm9.955-5.073h-3.251v8.608h-1.371v-9.889h4.622v1.281Zm6.401 2.921.152-1.538h-.102l-.66 1.691-3.352 5.534h-.915v-9.889h1.423v5.841l-.102 1.486h.051l.66-1.639 3.353-5.688h.914v9.889h-1.422v-5.687ZM115.675 168.69h-3.251v8.557h-1.372v-9.838h4.623v1.281Zm2.336 3.638c0 .512.051 1.076.102 1.588.051.41.152.82.355 1.23.153.308.356.615.61.82.254.205.61.307.965.307a1.71 1.71 0 0 0 1.524-.922c.406-.922.559-1.947.508-2.972 0-.512-.051-1.025-.102-1.588-.05-.41-.152-.82-.355-1.23-.153-.308-.356-.615-.61-.82-.254-.205-.609-.308-.965-.308-.66 0-1.219.359-1.524.923-.406.922-.558 1.947-.508 2.972Zm-1.473 0c0-1.794.305-3.075.915-3.895a3.215 3.215 0 0 1 2.59-1.281c1.067-.051 2.032.41 2.642 1.281.558.872.863 2.153.863 3.895 0 1.793-.305 3.074-.914 3.945a3.034 3.034 0 0 1-2.591 1.23c-1.067.051-2.032-.41-2.641-1.281-.559-.871-.864-2.152-.864-3.894Zm14.68 4.458c-.355.256-.711.461-1.117.564-.406.102-.864.205-1.321.205-.559 0-1.117-.103-1.575-.359a2.942 2.942 0 0 1-1.066-1.025c-.305-.512-.508-1.076-.559-1.64a10.167 10.167 0 0 1-.203-2.101c0-1.691.305-2.972.914-3.843a2.858 2.858 0 0 1 2.54-1.332c.457 0 .864.051 1.321.154.304.102.66.205.965.358l-.407 1.23a3.358 3.358 0 0 0-1.727-.461c-.66 0-1.27.359-1.574.922a6.588 6.588 0 0 0-.559 2.972c0 .513.051 1.025.102 1.538.05.41.203.871.406 1.229.152.308.406.615.711.82.305.205.711.308 1.067.308.609 0 1.168-.205 1.676-.615l.406 1.076Zm4.166-3.023.406 1.896h.102l.304-1.896 1.474-6.354h1.422l-2.337 8.864c-.203.718-.355 1.384-.559 1.999a8.49 8.49 0 0 1-.609 1.588 3.04 3.04 0 0 1-.711 1.076 1.38 1.38 0 0 1-.965.41c-.305 0-.661-.051-.966-.205l.254-1.332c.153.051.356.103.559.051.203-.051.356-.153.508-.307.203-.256.356-.512.457-.82.153-.461.305-.922.356-1.435l-3.149-9.889h1.625l1.829 6.354Zm9.6 2.203v-7.328h-2.235c-.051.564-.051 1.179-.101 1.845a26.51 26.51 0 0 1-.204 1.998c-.101.666-.203 1.281-.304 1.896a8.762 8.762 0 0 1-.458 1.537l3.302.052Zm2.54 3.792h-.965l-.203-2.511h-5.791l-.254 2.511h-.965v-3.792h.914c.102-.257.254-.513.305-.82.152-.513.305-1.076.406-1.64.153-.666.254-1.537.356-2.562a37.59 37.59 0 0 0 .152-3.587h4.928v8.609h1.168l-.051 3.792Zm5.994-6.969-.406-.051h-.407c-.305 0-.609.051-.914.102a4.986 4.986 0 0 0-.813.256c-.203.103-.406.308-.559.513-.152.256-.203.563-.203.871-.051.461.102.922.407 1.23.254.307.609.461.965.461.457.051.914-.103 1.27-.41.254-.256.508-.512.609-.871l.051-2.101Zm-4.165-4.817a4.555 4.555 0 0 1 1.371-.563c.559-.154 1.118-.205 1.727-.205.457 0 .915.051 1.321.256.305.153.609.358.762.666.203.307.305.615.355.974.051.358.102.768.102 1.127 0 .768 0 1.537-.051 2.306-.051.768-.051 1.486-.051 2.152 0 .512 0 .974.051 1.383.051.41.102.82.203 1.23h-1.117l-.356-1.178h-.05a2.367 2.367 0 0 1-.864.871c-.457.256-.965.41-1.524.359-.66 0-1.27-.257-1.727-.769a2.932 2.932 0 0 1-.66-2.05c0-.512.101-.973.254-1.435.203-.358.457-.717.812-.922.356-.256.762-.41 1.22-.512a8.144 8.144 0 0 1 1.574-.154h.813c.051-.41.051-.769.051-1.076a2.88 2.88 0 0 0-.305-1.589 1.38 1.38 0 0 0-1.219-.461c-.407 0-.813.051-1.168.154a8.915 8.915 0 0 0-1.067.41l-.457-.974Zm9.702 7.738c.203.154.406.307.609.358.305.103.61.154.915.154.711 0 1.32-.41 1.625-1.076.457-.922.66-1.998.61-3.023 0-.513-.051-1.025-.102-1.486a3.497 3.497 0 0 0-.355-1.179 2.276 2.276 0 0 0-.61-.768c-.254-.205-.559-.257-.914-.257-.966 0-1.575.564-1.829 1.743l.051 5.534Zm-1.423-8.301h1.016l.204 1.076h.101c.457-.82 1.321-1.333 2.286-1.281a2.667 2.667 0 0 1 2.337 1.178c.508.769.762 2.05.762 3.792 0 .769-.102 1.486-.254 2.255a6.278 6.278 0 0 1-.712 1.691c-.304.461-.66.82-1.117 1.076-.457.256-.965.359-1.524.359-.305 0-.61 0-.914-.052a1.763 1.763 0 0 1-.711-.307v4.048h-1.423l-.051-13.835Zm14.325 9.377c-.356.256-.711.461-1.117.564-.407.102-.864.205-1.321.205-.559 0-1.118-.103-1.575-.359a2.945 2.945 0 0 1-1.067-1.025c-.304-.512-.508-1.076-.558-1.64a10.102 10.102 0 0 1-.204-2.101c0-1.691.305-2.972.915-3.843a2.858 2.858 0 0 1 2.54-1.332c.457 0 .863.051 1.32.154.305.102.661.205.965.358l-.406 1.23a3.358 3.358 0 0 0-1.727-.461c-.66 0-1.27.359-1.575.922a6.6 6.6 0 0 0-.558 2.972c0 .513.05 1.025.101 1.538.051.41.203.871.407 1.229.152.308.406.615.711.82.304.205.711.308 1.066.308.61 0 1.169-.205 1.677-.615l.406 1.076Zm6.858-8.096h-2.439v8.557h-1.371v-8.557h-2.438v-1.281h6.248v1.281Zm2.946 7.327c.203 0 .406.051.558.051h.661c.508.052 1.016-.102 1.473-.409.355-.359.508-.872.457-1.333 0-.41-.102-.82-.406-1.178a1.846 1.846 0 0 0-1.423-.461h-1.32v3.33Zm1.473-4.407c.152 0 .355-.051.508-.102.152-.103.305-.205.457-.359.152-.153.254-.307.305-.512.101-.205.101-.41.101-.615.051-.41-.101-.82-.355-1.127-.356-.257-.813-.41-1.27-.359h-.762l-.508.051v3.023h1.524Zm-2.896-4.201 1.219-.103c.407-.051.915-.051 1.524-.051 1.067 0 1.829.205 2.286.615.508.461.762 1.127.711 1.844 0 .462-.101.923-.304 1.333-.254.461-.61.82-1.067.973v.103c.508.102 1.016.359 1.321.82.304.461.406 1.025.406 1.588.102.871-.254 1.691-.914 2.255a4.54 4.54 0 0 1-2.693.717c-.457 0-.863 0-1.27-.051-.406-.051-.812-.051-1.168-.102l-.051-9.941Zm13.055 3.894c.051-.769-.051-1.486-.406-2.152a1.367 1.367 0 0 0-1.219-.718c-.559 0-1.118.257-1.423.718a4.06 4.06 0 0 0-.609 2.152h3.657Zm1.118 5.278c-.356.307-.762.512-1.219.666-.508.154-1.016.256-1.524.256-.559 0-1.118-.102-1.575-.358-.457-.257-.813-.615-1.118-1.025-.304-.513-.508-1.076-.66-1.64a10.32 10.32 0 0 1-.203-2.152c0-1.691.305-2.972.914-3.843a2.941 2.941 0 0 1 2.591-1.333c.355 0 .711.052 1.067.154.355.103.711.307.965.564.304.307.558.717.711 1.178a5.02 5.02 0 0 1 .254 1.947c0 .205 0 .462-.051.718-.051.256-.051.512-.051.82h-4.978c0 .512.051 1.025.153 1.537.05.41.203.82.457 1.179.203.307.457.563.762.768.355.205.762.256 1.117.256a2.63 2.63 0 0 0 1.067-.205c.305-.102.559-.256.813-.461l.508.974Zm7.416-3.69h-3.404v4.356h-1.422v-9.838h1.422v4.15h3.404v-4.15h1.422v9.838h-1.422v-4.356Zm8.889 0h-3.403v4.356h-1.422v-9.838h1.422v4.15h3.403v-4.15h1.423v9.838h-1.423v-4.356Zm10.871-5.483h1.422v9.839h-1.422v-9.839Zm-5.385 8.558c.356.051.711.102 1.067.102.508.051.965-.154 1.321-.512.254-.41.406-.923.355-1.435.051-.512-.101-.974-.355-1.384a1.515 1.515 0 0 0-1.27-.512c-.203 0-.356 0-.559.051-.203 0-.406.052-.559.103v3.587Zm0-4.817c.254-.051.508-.103.762-.103s.457-.051.66-.051c.458 0 .915.051 1.372.205.356.154.61.359.864.615.203.256.355.615.457.922.101.359.152.769.152 1.179 0 1.179-.254 2.05-.813 2.613-.508.564-1.422.82-2.641.82-.762 0-1.473-.051-2.235-.102v-9.89h1.422v3.792Zm14.274.154a3.502 3.502 0 0 0-.406-2.152 1.368 1.368 0 0 0-1.219-.718c-.559 0-1.118.257-1.423.718a4.06 4.06 0 0 0-.609 2.152h3.657Zm1.118 5.278c-.356.307-.762.512-1.22.666-.508.154-1.016.256-1.523.256-.559 0-1.118-.102-1.575-.358-.457-.257-.813-.615-1.118-1.025-.304-.513-.508-1.076-.66-1.64a10.32 10.32 0 0 1-.203-2.152c0-1.691.305-2.972.914-3.843a2.941 2.941 0 0 1 2.591-1.333c.355 0 .711.052 1.066.154.356.103.712.307.966.564.304.307.558.717.711 1.178a5.04 5.04 0 0 1 .254 1.947c0 .205 0 .462-.051.718-.051.256-.051.512-.051.82h-4.978c0 .512.051 1.025.152 1.537.051.41.204.82.407 1.179.203.307.457.563.762.768.355.205.762.256 1.117.256a2.63 2.63 0 0 0 1.067-.205c.305-.102.559-.256.813-.461l.559.974Z" fill="#E44E34"/></g><defs><clipPath id="a"><path fill="#fff" d="M0 0h264v200H0z"/></clipPath></defs></svg>